# xmcd
#
# Track frame offsets:
#	150
#	23193
#	40100
#	58192
#	78171
#	107322
#	130095
#	151040
#	170150
#	194655
#	210458
#	227746
#
# Disc length: 3256 seconds
#
# Revision: 0
# Processed by: cddbd v1.5.1PL2 Copyright (c) Steve Scherf et al.
# Submitted via: EasyCDDAExtractor 9.1.0.1
#
DISCID=940cb60c
DTITLE=Various Artist - Remix Brasil
DYEAR=1900
DGENRE=variada
TTITLE0=Sá Pra Contrariar - Depois Do Prazer
TTITLE1=Lulu Santos - O Descobrir Dos Sete Mares
TTITLE2=Biquini Cavadão - Janaína
TTITLE3=Sandra De Sá - Joga Fora
TTITLE4=Nenhum De Nós - Camila, Camila
TTITLE5=Hanoi-Hanoi - Totalmente Demais
TTITLE6=Roupa Nova - Whisky A Go-Go
TTITLE7=Pato Fu - Antes Que Seja Tarde
TTITLE8=Lobão - Canos Silenciosos
TTITLE9=Engenheiros Do Hawaii - Segurança
TTITLE10=Raça Pura - O Pinto
TTITLE11=Picassos Falsos - Quadrinhos
EXTD=
EXTT0=
EXTT1=
EXTT2=
EXTT3=
EXTT4=
EXTT5=
EXTT6=
EXTT7=
EXTT8=
EXTT9=
EXTT10=
EXTT11=
PLAYORDER=
